<svg xmlns="http://www.w3.org/2000/svg" width="48" height="49" fill="none" viewBox="0 0 48 49"><g clip-path="url(#clip0_2447_4927)"><path fill="url(#paint0_linear_2447_4927)" d="M15.255 3.68348L2.745 16.1935C0.99 17.9485 0 20.3335 0 22.8235V45.1885C0 47.2585 1.68 48.9385 3.75 48.9385H26.115C28.605 48.9385 30.9825 47.9485 32.745 46.1935L45.255 33.6835C47.01 31.9285 48 29.5435 48 27.0535V4.68848C48 2.61848 46.32 0.938477 44.25 0.938477H21.885C19.395 0.938477 17.0175 1.92848 15.255 3.68348Z"/><path fill="#000" d="M36 12.9385H6V42.9385H36V12.9385Z"/><path fill="#fff" d="M22.5 36.1885H9.75V39.1885H22.5V36.1885Z"/></g><defs><linearGradient id="paint0_linear_2447_4927" x1=".637" x2="46.965" y1="47.978" y2="2.296" gradientUnits="userSpaceOnUse"><stop stop-color="#F7AABE"/><stop offset=".43" stop-color="#B57CEC"/><stop offset=".99" stop-color="#E472D1"/></linearGradient><clipPath id="clip0_2447_4927"><rect width="48" height="48" fill="#fff" transform="translate(0 0.938477)"/></clipPath></defs></svg>